# xmcd
#
# Track frame offsets: 
#        150
#        15712
#        35262
#        55612
#        72587
#        89525
#        105250
#        127212
#        145737
#        158050
#
# Disc length: 2321 seconds
#
# Revision: 2
# Processed by: cddbd v1.5.2PL0 Copyright (c) Steve Scherf et al.
# Submitted via: ExactAudioCopyFreeDBPlugin 1.0
#
DISCID=81090f0a
DTITLE=古巨基 - 忘了時間的鐘
DYEAR=1997
DGENRE=Pop
TTITLE0=忘了時間的鐘
TTITLE1=小指
TTITLE2=換日線
TTITLE3=老實說
TTITLE4=回憶公路
TTITLE5=從前情人好嗎
TTITLE6=我不睡
TTITLE7=笑說想
TTITLE8=1.2.3.4.5.
TTITLE9=讓我們在一起
EXTD=YEAR: 1997
EXTT0=
EXTT1=
EXTT2=
EXTT3=
EXTT4=
EXTT5=
EXTT6=
EXTT7=
EXTT8=
EXTT9=
PLAYORDER=
